<svg width="102" height="137" viewBox="0 0 102 137" fill="none" xmlns="http://www.w3.org/2000/svg">
<g id="&#240;&#159;&#166;&#134; icon &#34;microphone&#34;">
<path id="Vector" d="M49.2239 0.0697645C48.4781 0.190164 47.7411 0.36024 47.0179 0.578858C43.1898 1.44095 39.7788 3.60303 37.3654 6.69707C34.9521 9.79111 33.6856 13.6259 33.7814 17.5487V51.4882C33.7814 55.9889 35.5693 60.3052 38.7518 63.4877C41.9342 66.6702 46.2506 68.458 50.7512 68.458C55.2519 68.458 59.5682 66.6702 62.7507 63.4877C65.9331 60.3052 67.721 55.9889 67.721 51.4882V17.5487C67.8031 15.1432 67.3726 12.7478 66.458 10.5214C65.5434 8.29508 64.1657 6.28876 62.4163 4.63567C60.6669 2.98258 58.5859 1.72054 56.3114 0.933324C54.0369 0.146112 51.6209 -0.148255 49.2239 0.0697645ZM5.78127 34.5184C4.02506 35.1088 2.51036 36.2578 1.46852 37.7899C0.426675 39.3221 -0.0850363 41.1531 0.0115391 43.0033V51.4882C0.0115391 76.6035 18.5086 97.137 42.436 101.379V119.367H33.9511C24.6177 119.367 16.9813 127.004 16.9813 136.337H85.0302C85.0302 127.004 77.3938 119.367 68.0604 119.367H59.5755V101.379C83.5029 97.3067 102 76.6035 102 51.4882V43.0033C102 40.753 101.106 38.5948 99.5148 37.0036C97.9236 35.4124 95.7654 34.5184 93.5151 34.5184C91.2648 34.5184 89.1066 35.4124 87.5154 37.0036C85.9242 38.5948 85.0302 40.753 85.0302 43.0033V51.4882C85.0302 70.3247 69.9271 85.4278 51.0906 85.4278C32.2542 85.4278 17.151 70.3247 17.151 51.4882V43.0033C17.1716 41.7481 16.9133 40.5039 16.3949 39.3606C15.8764 38.2172 15.1107 37.2031 14.1529 36.3915C13.1952 35.5798 12.0693 34.9908 10.8563 34.6669C9.64342 34.343 8.37374 34.2923 7.13885 34.5184C6.79976 34.4981 6.45976 34.4981 6.12067 34.5184H5.78127Z" fill="white"/>
</g>
</svg>
